<?xml version="1.0" encoding="utf-8"?>
<!-- Generator: Adobe Illustrator 22.1.0, SVG Export Plug-In . SVG Version: 6.00 Build 0)  -->
<svg version="1.1" id="图层_1" xmlns="http://www.w3.org/2000/svg" xmlns:xlink="http://www.w3.org/1999/xlink" x="0px" y="0px"
	 viewBox="0 0 32 32" style="enable-background:new 0 0 32 32;" xml:space="preserve">
<style type="text/css">
	.st0{fill:url(#XMLID_2_);}
	.st1{fill:url(#XMLID_3_);}
</style>
<g id="XMLID_95_">
	
		<linearGradient id="XMLID_2_" gradientUnits="userSpaceOnUse" x1="16.0507" y1="-507.4195" x2="16.0507" y2="-541.4048" gradientTransform="matrix(1 0 0 -1 0 -509.2756)">
		<stop  offset="0" style="stop-color:#DA2637"/>
		<stop  offset="5.948329e-02" style="stop-color:#D22E44"/>
		<stop  offset="0.1861" style="stop-color:#C03A5A"/>
		<stop  offset="0.316" style="stop-color:#B0456C"/>
		<stop  offset="0.4471" style="stop-color:#A34A7C"/>
		<stop  offset="0.5796" style="stop-color:#974D88"/>
		<stop  offset="0.7144" style="stop-color:#8F5092"/>
		<stop  offset="0.8528" style="stop-color:#895297"/>
		<stop  offset="1" style="stop-color:#875299"/>
	</linearGradient>
	<path id="XMLID_99_" class="st0" d="M29.1,20.8L29.1,20.8L29.1,20.8c1.6-2.4,2.6-5.4,2.6-8.6c0-0.9-0.1-1.7-0.2-2.5
		C31.3,8,30,7.1,29,7.1c-1.4,0-2.6,1.1-2.3,3.6l0,0c0.1,0.5,0.1,1.1,0.1,1.7c-0.1,5.9-5,10.8-11,10.6C10,22.8,5.3,18.1,5.3,12.2
		c0-2.8,1.1-5.4,2.8-7.3l0,0c0,0,1.4-1.3,1.4-2.2c0-1.3-1.1-2.4-2.5-2.4c-0.6,0-1.3,0.3-1.9,0.9l0,0C2.2,3.9,0.4,7.9,0.4,12.2
		c0,8.5,6.7,15.5,15.1,15.7h0.9c8.1,0.1,11,4.1,11,4.1c-1.5-5.5,0.7-9.5,1.5-10.8C28.9,21.1,29.1,21,29.1,20.8z"/>
	
		<linearGradient id="XMLID_3_" gradientUnits="userSpaceOnUse" x1="16.0507" y1="-507.4195" x2="16.0507" y2="-541.4048" gradientTransform="matrix(1 0 0 -1 0 -509.2756)">
		<stop  offset="0" style="stop-color:#DA2637"/>
		<stop  offset="5.948329e-02" style="stop-color:#D22E44"/>
		<stop  offset="0.1861" style="stop-color:#C03A5A"/>
		<stop  offset="0.316" style="stop-color:#B0456C"/>
		<stop  offset="0.4471" style="stop-color:#A34A7C"/>
		<stop  offset="0.5796" style="stop-color:#974D88"/>
		<stop  offset="0.7144" style="stop-color:#8F5092"/>
		<stop  offset="0.8528" style="stop-color:#895297"/>
		<stop  offset="1" style="stop-color:#875299"/>
	</linearGradient>
	<path id="XMLID_96_" class="st1" d="M16.1,5.8c-3.5,0-6.3,2.8-6.3,6.3s2.8,6.3,6.3,6.3s6.3-2.8,6.3-6.3S19.6,5.8,16.1,5.8z
		 M18.2,12.4l-3.2,2c-0.1,0.1-0.3,0-0.3-0.1l-0.1-4.2c0-0.1,0.1-0.3,0.3-0.1l3.2,2.1C18.3,12.2,18.3,12.4,18.2,12.4z"/>
</g>
</svg>
