<?xml version="1.0" encoding="utf-8"?>
<!-- Generator: Adobe Illustrator 22.1.0, SVG Export Plug-In . SVG Version: 6.00 Build 0)  -->
<svg version="1.1" id="Layer_1" xmlns="http://www.w3.org/2000/svg" xmlns:xlink="http://www.w3.org/1999/xlink" x="0px" y="0px"
	 viewBox="0 0 204.5 51.7" style="enable-background:new 0 0 204.5 51.7;" xml:space="preserve">
<style type="text/css">
	.st0{fill:#FFFFFF;}
</style>
<g id="XMLID_95_">
	<path id="XMLID_99_" class="st0" d="M43.5,31.2L43.5,31.2L43.5,31.2c2.4-3.7,3.9-8.2,3.9-13c0-1.3-0.1-2.6-0.3-3.8
		c-0.3-2.7-2.3-4-3.8-4c-2.1,0-4,1.7-3.5,5.4l0,0c0.1,0.8,0.2,1.7,0.2,2.5c-0.1,9-7.6,16.3-16.6,16.1c-8.8-0.2-16-7.4-16-16.3
		c0-4.2,1.6-8.1,4.3-11l0,0c0,0,2.1-2,2.1-3.4c0-2-1.7-3.7-3.8-3.7C9.1,0,8,0.4,7.1,1.3l0,0C2.7,5.6,0,11.6,0,18.1
		C0,31,10.2,41.5,22.9,41.9h1.3c12.3,0.1,16.7,6.2,16.7,6.2c-2.2-8.3,1-14.4,2.2-16.3C43.2,31.6,43.4,31.4,43.5,31.2z"/>
	<path id="XMLID_96_" class="st0" d="M23.7,8.5c-5.3,0-9.6,4.3-9.6,9.6s4.3,9.6,9.6,9.6s9.6-4.3,9.6-9.6S29,8.5,23.7,8.5z
		 M26.9,18.5l-4.8,3.1c-0.2,0.1-0.4,0-0.4-0.2L21.6,15c0-0.2,0.2-0.4,0.4-0.2l4.9,3.2C27.1,18.1,27.1,18.4,26.9,18.5z"/>
</g>
<g>
	<path class="st0" d="M63.8,41.1V19c-4.1,3.2-6.9,4.7-8.3,4.7c-0.7,0-1.3-0.3-1.8-0.8s-0.8-1.2-0.8-1.9c0-0.8,0.3-1.4,0.8-1.8
		s1.4-0.9,2.7-1.5c2-0.9,3.5-1.9,4.7-2.9s2.2-2.2,3.1-3.4c0.9-1.3,1.5-2,1.8-2.3c0.3-0.3,0.8-0.4,1.6-0.4c0.9,0,1.5,0.3,2.1,1
		c0.5,0.7,0.8,1.6,0.8,2.7v27.8c0,3.3-1.1,4.9-3.3,4.9c-1,0-1.8-0.3-2.4-1C64.3,43.4,63.8,42.4,63.8,41.1z"/>
	<path class="st0" d="M106.6,27c0,2.7-0.2,4.9-0.5,6.8c-0.3,1.9-0.9,3.6-1.8,5.2c-1.1,1.9-2.5,3.4-4.3,4.4S96.3,45,94.1,45
		c-2.5,0-4.7-0.7-6.6-2.1c-1.9-1.4-3.4-3.3-4.4-5.8c-0.5-1.3-0.9-2.8-1.1-4.5c-0.2-1.6-0.4-3.4-0.4-5.3c0-2.4,0.1-4.6,0.4-6.6
		s0.7-3.6,1.2-5c1-2.3,2.3-4.1,4.2-5.3c1.8-1.2,4-1.8,6.5-1.8c1.7,0,3.2,0.3,4.5,0.8c1.4,0.5,2.6,1.3,3.6,2.4c1,1,1.9,2.3,2.6,3.9
		C105.9,18.3,106.6,22.1,106.6,27z M99.8,26.5c0-3-0.2-5.4-0.5-7.3c-0.4-1.9-1-3.3-1.8-4.3s-2-1.4-3.5-1.4c-2.1,0-3.6,1.1-4.5,3.2
		c-0.8,2.2-1.2,5.5-1.2,9.9c0,3,0.2,5.5,0.5,7.5c0.4,1.9,1,3.4,1.8,4.4s2,1.5,3.4,1.5c1.5,0,2.7-0.5,3.5-1.6c0.8-1,1.4-2.5,1.8-4.4
		C99.8,32.1,99.8,29.6,99.8,26.5z"/>
	<path class="st0" d="M112.3,17.9c0-1.6,0.4-3.1,1.3-4.6c0.9-1.5,2.2-2.6,3.9-3.4c1.7-0.9,3.7-1.3,6-1.3c1.9,0,3.6,0.3,5.1,0.8
		s2.7,1.2,3.6,2.1c1,0.9,1.7,1.9,2.2,3s0.7,2.3,0.7,3.5c0,1.6-0.4,3-1.2,4.2c-0.8,1.2-2,2.3-3.7,3.1c1.4,0.5,2.5,1.2,3.4,2.1
		s1.6,1.9,2,3c0.5,1.1,0.7,2.4,0.7,3.8c0,2-0.5,3.9-1.5,5.5c-1,1.7-2.4,3-4.3,3.9c-1.9,0.9-4.2,1.4-6.7,1.4c-2.7,0-5-0.5-6.9-1.4
		c-1.9-0.9-3.3-2.2-4.3-3.9c-1-1.6-1.5-3.5-1.5-5.5c0-4.4,2.1-7.3,6.2-9C113.8,23.7,112.3,21.2,112.3,17.9z M129.5,34
		c0-1.3-0.3-2.4-0.8-3.3c-0.5-0.9-1.2-1.7-2.2-2.2c-0.9-0.5-2-0.8-3.2-0.8c-1.6,0-3,0.5-4.1,1.7c-1.1,1.1-1.7,2.6-1.7,4.6
		c0,1.3,0.3,2.4,0.8,3.3c0.5,1,1.2,1.7,2.1,2.2c0.9,0.5,1.9,0.8,3,0.8c1.1,0,2.2-0.3,3.1-0.8c0.9-0.5,1.6-1.3,2.1-2.3
		C129.3,36.3,129.5,35.2,129.5,34z M123.6,13.2c-1.5,0-2.7,0.5-3.7,1.4c-0.9,0.9-1.4,2.2-1.4,3.7c0,1.4,0.5,2.5,1.4,3.4
		c0.9,0.9,2.2,1.4,3.7,1.4c0.8,0,1.5-0.1,2.1-0.4c0.6-0.2,1.2-0.6,1.6-1c0.4-0.4,0.8-0.9,1-1.5c0.2-0.6,0.4-1.2,0.4-2
		c0-1-0.2-1.8-0.6-2.6c-0.4-0.8-1-1.4-1.8-1.8C125.4,13.4,124.6,13.2,123.6,13.2z"/>
	<path class="st0" d="M165.5,27c0,2.7-0.2,4.9-0.5,6.8c-0.3,1.9-0.9,3.6-1.8,5.2c-1.1,1.9-2.5,3.4-4.3,4.4s-3.7,1.6-5.8,1.6
		c-2.5,0-4.7-0.7-6.6-2.1c-1.9-1.4-3.4-3.3-4.4-5.8c-0.5-1.3-0.9-2.8-1.1-4.5c-0.2-1.6-0.4-3.4-0.4-5.3c0-2.4,0.1-4.6,0.4-6.6
		c0.3-2,0.7-3.6,1.2-5c1-2.3,2.3-4.1,4.2-5.3c1.8-1.2,4-1.8,6.5-1.8c1.7,0,3.2,0.3,4.5,0.8c1.4,0.5,2.6,1.3,3.6,2.4s1.9,2.3,2.6,3.9
		C164.9,18.3,165.5,22.1,165.5,27z M158.9,26.5c0-3-0.2-5.4-0.5-7.3c-0.4-1.9-1-3.3-1.8-4.3s-2-1.4-3.5-1.4c-2.1,0-3.6,1.1-4.5,3.2
		c-0.8,2.2-1.3,5.5-1.3,9.9c0,3,0.2,5.5,0.5,7.5c0.4,1.9,1,3.4,1.8,4.4s2,1.5,3.4,1.5c1.5,0,2.7-0.5,3.5-1.6s1.4-2.5,1.8-4.4
		S158.9,29.6,158.9,26.5z"/>
	<path class="st0" d="M185.6,30.6H179v10.1c0,1.4-0.3,2.5-1,3.3c-0.7,0.7-1.5,1.1-2.6,1.1s-2-0.4-2.6-1.1c-0.7-0.7-1-1.8-1-3.2V13.3
		c0-1.6,0.4-2.7,1.1-3.4c0.7-0.7,1.9-1,3.5-1h9.2c2.7,0,4.8,0.2,6.3,0.6s2.7,1.1,3.8,2s1.9,2.1,2.4,3.4c0.5,1.4,0.8,2.9,0.8,4.6
		c0,3.6-1.1,6.4-3.3,8.2C193.3,29.6,190,30.6,185.6,30.6z M183.8,14.3h-4.9v10.9h4.9c1.7,0,3.1-0.2,4.3-0.5s2-0.9,2.6-1.7
		c0.6-0.8,0.9-1.9,0.9-3.2c0-1.6-0.5-2.8-1.4-3.8C189.3,14.8,187,14.3,183.8,14.3z"/>
</g>
</svg>
